<mxfile host="app.diagrams.net" modified="2022-09-03T16:02:32.427Z" agent="5.0 (Windows NT 10.0; Win64; x64) AppleWebKit/537.36 (KHTML, like Gecko) Chrome/104.0.5112.102 Safari/537.36 Edg/104.0.1293.70" etag="rskG9TMZjKluKcNRhLcM" version="20.2.4" type="github">
  <diagram id="NB6mXYDmec099IJfaaXO" name="Página-1">
    <mxGraphModel dx="1145" dy="693" grid="1" gridSize="10" guides="1" tooltips="1" connect="1" arrows="1" fold="1" page="1" pageScale="1" pageWidth="827" pageHeight="1169" math="0" shadow="0">
      <root>
        <mxCell id="0" />
        <mxCell id="1" parent="0" />
        <mxCell id="c-SrezF3dRg-0r12ovPg-1" value="ListadoAlumnos" style="swimlane;fillColor=#dae8fc;strokeColor=#6c8ebf;" vertex="1" parent="1">
          <mxGeometry x="40" y="120" width="200" height="140" as="geometry" />
        </mxCell>
        <mxCell id="c-SrezF3dRg-0r12ovPg-15" value="CollectionView" style="text;html=1;strokeColor=none;fillColor=none;align=center;verticalAlign=middle;whiteSpace=wrap;rounded=0;" vertex="1" parent="c-SrezF3dRg-0r12ovPg-1">
          <mxGeometry y="20" width="200" height="30" as="geometry" />
        </mxCell>
        <mxCell id="c-SrezF3dRg-0r12ovPg-2" value="AlumnosViewModel" style="swimlane;fillColor=#d5e8d4;strokeColor=#82b366;startSize=23;" vertex="1" parent="1">
          <mxGeometry x="250" y="120" width="300" height="140" as="geometry" />
        </mxCell>
        <mxCell id="c-SrezF3dRg-0r12ovPg-11" value="(ObservableColletions&amp;lt;AlumnoModel&amp;gt;)&amp;nbsp; Alumnos&lt;br&gt;&lt;br&gt;(Command) ListarAlummnos&lt;br&gt;(Command) ObtenerAlumno&lt;br&gt;(Command) EliminarAlumno&lt;br&gt;(Command) AgregarAlumno" style="text;html=1;strokeColor=none;fillColor=none;align=center;verticalAlign=middle;whiteSpace=wrap;rounded=0;" vertex="1" parent="c-SrezF3dRg-0r12ovPg-2">
          <mxGeometry x="20" y="20" width="180" height="110" as="geometry" />
        </mxCell>
        <mxCell id="c-SrezF3dRg-0r12ovPg-3" value="Views" style="text;html=1;strokeColor=#6c8ebf;fillColor=#dae8fc;align=center;verticalAlign=middle;whiteSpace=wrap;rounded=0;" vertex="1" parent="1">
          <mxGeometry x="40" y="80" width="60" height="30" as="geometry" />
        </mxCell>
        <mxCell id="c-SrezF3dRg-0r12ovPg-4" value="ModelView" style="text;html=1;strokeColor=#82b366;fillColor=#d5e8d4;align=center;verticalAlign=middle;whiteSpace=wrap;rounded=0;" vertex="1" parent="1">
          <mxGeometry x="250" y="80" width="60" height="30" as="geometry" />
        </mxCell>
        <mxCell id="c-SrezF3dRg-0r12ovPg-5" value="Model" style="text;html=1;strokeColor=#b85450;fillColor=#f8cecc;align=center;verticalAlign=middle;whiteSpace=wrap;rounded=0;" vertex="1" parent="1">
          <mxGeometry x="560" y="80" width="60" height="30" as="geometry" />
        </mxCell>
        <mxCell id="c-SrezF3dRg-0r12ovPg-6" value="AlumnoModel" style="swimlane;fillColor=#f8cecc;strokeColor=#b85450;swimlaneFillColor=none;glass=0;shadow=1;" vertex="1" parent="1">
          <mxGeometry x="560" y="120" width="200" height="80" as="geometry" />
        </mxCell>
        <mxCell id="c-SrezF3dRg-0r12ovPg-9" value="(int) ID&lt;br&gt;(string) Nombre&lt;br&gt;(string) Apellido" style="text;html=1;strokeColor=none;fillColor=none;align=center;verticalAlign=middle;whiteSpace=wrap;rounded=0;" vertex="1" parent="c-SrezF3dRg-0r12ovPg-6">
          <mxGeometry x="10" y="30" width="180" height="30" as="geometry" />
        </mxCell>
        <mxCell id="c-SrezF3dRg-0r12ovPg-7" value="&lt;h1&gt;Objetivo&lt;/h1&gt;&lt;p&gt;Generar un CRUD con SQL Lite de Alumnos&lt;/p&gt;" style="text;html=1;strokeColor=none;fillColor=none;spacing=5;spacingTop=-20;whiteSpace=wrap;overflow=hidden;rounded=0;" vertex="1" parent="1">
          <mxGeometry x="310" y="370" width="200" height="120" as="geometry" />
        </mxCell>
        <mxCell id="c-SrezF3dRg-0r12ovPg-8" value="DetalleAlumno" style="swimlane;fillColor=#dae8fc;strokeColor=#6c8ebf;" vertex="1" parent="1">
          <mxGeometry x="40" y="270" width="200" height="90" as="geometry" />
        </mxCell>
        <mxCell id="c-SrezF3dRg-0r12ovPg-16" value="Formulario de Alumno&lt;br&gt;Validators" style="text;html=1;strokeColor=none;fillColor=none;align=center;verticalAlign=middle;whiteSpace=wrap;rounded=0;" vertex="1" parent="c-SrezF3dRg-0r12ovPg-8">
          <mxGeometry y="30" width="200" height="30" as="geometry" />
        </mxCell>
        <mxCell id="c-SrezF3dRg-0r12ovPg-13" value="AlumnosViewModel" style="swimlane;fillColor=#d5e8d4;strokeColor=#82b366;startSize=23;" vertex="1" parent="1">
          <mxGeometry x="250" y="270" width="300" height="90" as="geometry" />
        </mxCell>
        <mxCell id="c-SrezF3dRg-0r12ovPg-14" value="(AlumnoModel)&amp;nbsp; Alumno&lt;br&gt;&lt;br&gt;(Command)GuardarAlumno&lt;br&gt;" style="text;html=1;strokeColor=none;fillColor=none;align=center;verticalAlign=middle;whiteSpace=wrap;rounded=0;" vertex="1" parent="c-SrezF3dRg-0r12ovPg-13">
          <mxGeometry x="20" y="20" width="180" height="60" as="geometry" />
        </mxCell>
        <mxCell id="c-SrezF3dRg-0r12ovPg-17" value="&lt;h1&gt;Reglas de Negocios&lt;/h1&gt;&lt;div&gt;Alta de Alumno:&lt;br&gt;-Nombre y Apellido obligatorio&lt;br&gt;-Largo mayor a 30 caracteres&lt;/div&gt;" style="text;html=1;strokeColor=none;fillColor=none;spacing=5;spacingTop=-20;whiteSpace=wrap;overflow=hidden;rounded=0;" vertex="1" parent="1">
          <mxGeometry x="40" y="370" width="270" height="120" as="geometry" />
        </mxCell>
        <mxCell id="c-SrezF3dRg-0r12ovPg-18" value="" style="whiteSpace=wrap;html=1;aspect=fixed;" vertex="1" parent="1">
          <mxGeometry x="40" y="540" width="170" height="170" as="geometry" />
        </mxCell>
        <mxCell id="c-SrezF3dRg-0r12ovPg-19" value="Listar&lt;br&gt;Opciones" style="rounded=0;whiteSpace=wrap;html=1;" vertex="1" parent="1">
          <mxGeometry x="50" y="550" width="90" height="150" as="geometry" />
        </mxCell>
        <mxCell id="c-SrezF3dRg-0r12ovPg-21" value="Services" style="text;html=1;strokeColor=#9673a6;fillColor=#e1d5e7;align=center;verticalAlign=middle;whiteSpace=wrap;rounded=0;" vertex="1" parent="1">
          <mxGeometry x="560" y="230" width="60" height="30" as="geometry" />
        </mxCell>
        <mxCell id="c-SrezF3dRg-0r12ovPg-22" value="BDService" style="swimlane;fillColor=#e1d5e7;strokeColor=#9673a6;" vertex="1" parent="1">
          <mxGeometry x="560" y="270" width="200" height="80" as="geometry" />
        </mxCell>
        <mxCell id="c-SrezF3dRg-0r12ovPg-23" value="CRUD con SQL Lite" style="text;html=1;strokeColor=none;fillColor=none;align=center;verticalAlign=middle;whiteSpace=wrap;rounded=0;" vertex="1" parent="c-SrezF3dRg-0r12ovPg-22">
          <mxGeometry x="10" y="30" width="180" height="30" as="geometry" />
        </mxCell>
        <mxCell id="c-SrezF3dRg-0r12ovPg-24" value="&lt;h1&gt;Patrón&lt;/h1&gt;&lt;div&gt;MVVM: Modelo - Vista - VistaModelo&lt;/div&gt;" style="text;html=1;strokeColor=none;fillColor=none;spacing=5;spacingTop=-20;whiteSpace=wrap;overflow=hidden;rounded=0;" vertex="1" parent="1">
          <mxGeometry x="560" y="370" width="230" height="120" as="geometry" />
        </mxCell>
        <mxCell id="c-SrezF3dRg-0r12ovPg-25" value="" style="shape=image;verticalLabelPosition=bottom;labelBackgroundColor=default;verticalAlign=top;aspect=fixed;imageAspect=0;image=https://docs.microsoft.com/en-us/learn/dot-net-maui/store-local-data/media/2-data-storage-options.svg;" vertex="1" parent="1">
          <mxGeometry x="277.24" y="570" width="482.76" height="140" as="geometry" />
        </mxCell>
        <mxCell id="c-SrezF3dRg-0r12ovPg-27" style="edgeStyle=orthogonalEdgeStyle;rounded=0;orthogonalLoop=1;jettySize=auto;html=1;" edge="1" parent="1" source="c-SrezF3dRg-0r12ovPg-26">
          <mxGeometry relative="1" as="geometry">
            <mxPoint x="680" y="730" as="targetPoint" />
          </mxGeometry>
        </mxCell>
        <mxCell id="c-SrezF3dRg-0r12ovPg-26" value="SQL Lite" style="rounded=1;whiteSpace=wrap;html=1;" vertex="1" parent="1">
          <mxGeometry x="620" y="760" width="120" height="60" as="geometry" />
        </mxCell>
        <mxCell id="c-SrezF3dRg-0r12ovPg-28" value="&lt;h1&gt;Packages&lt;/h1&gt;&lt;div&gt;sqlite-net-pcl&lt;br&gt;&lt;/div&gt;&lt;div&gt;SQLitePCLRaw.provider.dynamic_cdecl&lt;br&gt;&lt;/div&gt;&lt;div&gt;CommunityToolkit.Mvvm&lt;/div&gt;" style="text;html=1;strokeColor=none;fillColor=none;spacing=5;spacingTop=-20;whiteSpace=wrap;overflow=hidden;rounded=0;" vertex="1" parent="1">
          <mxGeometry x="45" y="740" width="275" height="120" as="geometry" />
        </mxCell>
      </root>
    </mxGraphModel>
  </diagram>
</mxfile>
